<svg width="37" height="37" viewBox="0 0 37 37" fill="none" xmlns="http://www.w3.org/2000/svg">
    <path d="M18.267 0.265991C8.34157 0.265991 0.266968 8.34067 0.266968 18.266C0.266968 28.1914 8.34157 36.266 18.267 36.266C28.1924 36.266 36.267 28.1913 36.267 18.266C36.267 8.34077 28.1924 0.265991 18.267 0.265991ZM15.8124 6.81147C15.8124 5.45821 16.9137 4.35693 18.267 4.35693C19.6202 4.35693 20.7215 5.45821 20.7215 6.81147V20.7206C20.7215 22.0738 19.6202 23.1751 18.267 23.1751C16.9137 23.1751 15.8124 22.0738 15.8124 20.7206V6.81147ZM18.267 32.1751C16.462 32.1751 14.9943 30.7072 14.9943 28.9024C14.9943 27.0975 16.462 25.6297 18.267 25.6297C20.0719 25.6297 21.5397 27.0975 21.5397 28.9024C21.5397 30.7072 20.0719 32.1751 18.267 32.1751Z" fill="white" />
</svg>
