<svg width="36" height="36" viewBox="0 0 36 36" fill="none" xmlns="http://www.w3.org/2000/svg">
    <g clip-path="url(#clip0_1414_87)">
        <path d="M8.6771 5.12115C9.32172 4.74652 9.98997 4.41127 10.6875 4.11877C12.1578 3.49215 13.6755 3.1344 15.2403 2.97577L16.9278 4.88715L16.1437 6.86152C14.6137 7.15515 13.1726 7.71765 11.8248 8.53215L11.5323 8.70765L11.268 6.10552L8.6771 5.11552V5.12115ZM7.94585 5.58465L10.629 6.62077L10.9091 9.1869C9.45672 10.2534 8.32047 11.618 7.5116 13.2819C7.4351 13.4293 7.36422 13.5755 7.3001 13.7274L5.41347 11.4369L2.3321 12.0883C3.09822 10.4289 4.1366 8.9529 5.42472 7.64677C6.19872 6.86715 7.03122 6.1809 7.92672 5.58465H7.94585ZM25.6173 23.6656C25.9098 23.1796 26.145 22.688 26.3385 22.1773L29.2443 25.7053L34.1257 24.6511C33.8433 25.424 33.5171 26.1733 33.1357 26.9113C32.1277 28.8508 30.8036 30.5281 29.1622 31.9513C27.4927 33.3991 25.6061 34.4533 23.5023 35.1148C23.4618 35.1271 23.4202 35.1384 23.3797 35.1508L19.7651 32.0919L20.709 27.9305L20.7843 27.9024C22.8532 26.999 24.4698 25.604 25.6185 23.6488L25.6173 23.6656ZM31.7283 7.20802C32.0287 7.61752 32.3032 8.04502 32.5732 8.49052C33.6858 10.3591 34.4542 12.3639 34.8817 14.4969C35.2912 16.6119 35.3553 18.7393 35.0628 20.8723C34.9053 21.8983 34.6815 22.9006 34.3653 23.8783L29.484 24.9268L26.5601 21.3886C26.901 20.0881 26.9415 18.7336 26.649 17.3285C26.3081 15.659 25.5701 14.228 24.4676 13.0501L29.7292 12.4235L31.6923 7.20915L31.7283 7.20802ZM2.01035 12.8791L5.15697 12.212L7.01435 14.4721C6.42147 16.1011 6.29322 17.7886 6.58685 19.5403C6.65097 20.0443 6.76235 20.5258 6.89735 20.9938L3.56847 20.2378L1.18347 23.0626C0.896597 21.8083 0.761597 20.5325 0.761597 19.2298C0.761597 17.0506 1.16547 14.9536 1.9676 12.9309L1.99122 12.8724L2.01035 12.8791ZM7.17185 21.7801C7.64772 23.0446 8.34972 24.2 9.28235 25.2541C9.97872 26.0563 10.7707 26.7133 11.6313 27.2285L8.32722 29.1219L8.50835 33.416C7.41822 32.7421 6.41585 31.9344 5.50797 31.0085C3.97797 29.4324 2.80685 27.6391 1.99797 25.6119C1.77635 25.0494 1.59297 24.4869 1.43547 23.9244L3.89135 21.041L7.21797 21.8094L7.17185 21.7801ZM12.3446 27.6211C13.0545 27.9778 13.8161 28.2478 14.625 28.43C16.4351 28.8519 18.2058 28.7821 19.9158 28.2185L18.9787 32.3551L22.5596 35.3848C20.7731 35.8528 18.945 36.0519 17.0752 35.9878C14.8893 35.9169 12.7912 35.4556 10.7876 34.5984C10.2487 34.37 9.73347 34.118 9.22947 33.8379L9.04835 29.5134L12.3446 27.6211ZM31.2243 6.54427L29.2567 11.7778L23.8308 12.4269C23.6722 12.2919 23.5147 12.1569 23.3437 12.0455C21.5628 10.6921 19.5592 9.9069 17.3396 9.67852C16.8176 9.63802 16.326 9.63802 15.8501 9.63802L17.7435 4.79715L13.6541 0.139647C14.8905 0.00464749 16.1077 -0.0133525 17.3396 0.00464749C18.0776 0.0282725 18.8032 0.0811475 19.5311 0.174522C20.5492 0.309522 21.5516 0.531147 22.5472 0.807897C24.6577 1.4064 26.5792 2.35477 28.3128 3.70252C29.4075 4.53952 30.375 5.48902 31.2243 6.54315V6.54427Z" fill="#850885" />
    </g>
    <defs>
        <clipPath id="clip0_1414_87">
            <rect width="36" height="36" fill="white" />
        </clipPath>
    </defs>
</svg>
