<svg width="36" height="34" viewBox="0 0 36 34" fill="none" xmlns="http://www.w3.org/2000/svg">
    <path d="M4.8946 33.1435C4.8946 33.1435 4.86186 34 5.64898 34C6.62844 34 14.7233 33.9884 14.7233 33.9884L14.737 26.0745C14.737 26.0745 14.6087 24.7707 15.7969 24.7707H19.5633C20.9698 24.7707 20.8838 26.0745 20.8838 26.0745L20.8675 33.9637C20.8675 33.9637 28.5449 33.9637 29.7508 33.9637C30.7494 33.9637 30.7044 32.8981 30.7044 32.8981V18.3042L18.1842 6.45288L4.8946 18.3057C4.8946 18.3057 4.8946 33.1435 4.8946 33.1435Z" fill="#850885" />
    <path d="M0 17.2022C0 17.2022 1.12679 19.4148 3.58909 17.2022L18.296 3.96004L32.0835 17.1195C34.9319 19.306 36 17.1195 36 17.1195L18.296 0.0516968L0 17.2022Z" fill="#850885" />
    <path d="M31.7478 3.92963H28.2024L28.2174 8.50727L31.7478 11.697V3.92963Z" fill="#850885" />
</svg>
