<svg width="18" height="18" viewBox="0 0 18 18" fill="none" xmlns="http://www.w3.org/2000/svg">
    <path d="M8.99994 0C6.0915 0 3.72534 2.36616 3.72534 5.27459C3.72534 6.06777 3.89715 6.83006 4.23585 7.5408C4.24267 7.55601 4.24983 7.57094 4.25746 7.58587L8.24269 15.3021C8.389 15.5853 8.68114 15.7632 8.99987 15.7632C9.31866 15.7632 9.6108 15.5854 9.75704 15.3021L13.7412 7.58798C13.7481 7.57469 13.7545 7.56126 13.7606 7.54769C14.1016 6.8349 14.2744 6.07029 14.2744 5.27459C14.2745 2.36616 11.9084 0 8.99994 0ZM8.99994 8.03543C7.47761 8.03543 6.2391 6.79692 6.2391 5.27459C6.2391 3.75234 7.47761 2.51383 8.99994 2.51383C10.5223 2.51383 11.7608 3.75234 11.7608 5.27459C11.7608 6.79692 10.5223 8.03543 8.99994 8.03543Z" fill="white" />
    <path d="M11.0316 16.9773H6.96812C6.68566 16.9773 6.45679 17.2062 6.45679 17.4886C6.45679 17.7711 6.68566 18 6.96812 18H11.0316C11.3141 18 11.5429 17.7711 11.5429 17.4886C11.5429 17.2062 11.314 16.9773 11.0316 16.9773Z" fill="white" />
</svg>
