<svg width="178" height="27" viewBox="0 0 178 27" fill="none" xmlns="http://www.w3.org/2000/svg">
    <g filter="url(#filter0_dii_25_29433)">
        <g clip-path="url(#clip0_25_29433)">
            <rect x="1" y="0.53833" width="25.009" height="25.009" rx="12.5045"
                fill="url(#paint0_linear_25_29433)" />
            <rect x="1" y="0.53833" width="25.009" height="25.009" rx="12.5045"
                fill="url(#paint1_radial_25_29433)" fill-opacity="0.2" />
            <path
                d="M17.5835 27.1812C16.7885 27.4606 15.9706 27.7328 15.1306 27.9977H11.9807C11.1407 27.7328 10.3227 27.4606 9.52777 27.1812H17.5835ZM21.7625 25.5564H5.34876C4.72864 25.2891 4.12772 25.0169 3.54665 24.7399H23.5646C22.9836 25.0169 22.3826 25.2891 21.7625 25.5564ZM26.6516 23.1151H0.459649C-0.000422001 22.8464 -0.442798 22.5742 -0.867001 22.2987H27.9783C27.5541 22.5742 27.1117 22.8464 26.6516 23.1151ZM30.2196 20.6738H-3.10834C-3.43873 20.4042 -3.75224 20.132 -4.04852 19.8574H31.1598C30.8635 20.132 30.55 20.4042 30.2196 20.6738ZM32.6874 18.2326H-5.57616C-5.79376 17.9622 -5.99491 17.69 -6.17936 17.4161H33.2906C33.1062 17.69 32.905 17.9622 32.6874 18.2326ZM34.179 15.7913H-7.0677C-7.18194 15.5204 -7.28003 15.2482 -7.36176 14.9748H34.473C34.3913 15.2482 34.2932 15.5204 34.179 15.7913ZM34.7633 13.35H-7.65201C-7.66007 13.2142 -7.66412 13.0781 -7.66412 12.9416C-7.66412 12.8053 -7.66007 12.6693 -7.65202 12.5335H34.7633C34.7714 12.6693 34.7754 12.8053 34.7754 12.9416C34.7754 13.0781 34.7714 13.2142 34.7633 13.35ZM34.4731 10.9087H-7.36183C-7.28012 10.6353 -7.18203 10.3631 -7.06781 10.0923H34.1791C34.2933 10.3631 34.3914 10.6353 34.4731 10.9087ZM33.2908 8.46743H-6.17953C-5.9951 8.19356 -5.79395 7.92137 -5.57637 7.65097H32.6876C32.9052 7.92137 33.1064 8.19356 33.2908 8.46743ZM31.1601 6.02614H-4.04879C-3.75253 5.75155 -3.43903 5.47935 -3.10865 5.20969H30.2199C30.5503 5.47935 30.8638 5.75155 31.1601 6.02614ZM27.9787 3.58486H-0.867392C-0.443204 3.3093 -0.000842094 3.03709 0.459214 2.7684H26.6521C27.1121 3.03709 27.5545 3.3093 27.9787 3.58486ZM23.5652 1.14358H3.54612C4.12717 0.86663 4.72807 0.594402 5.34817 0.327122H21.7631C22.3832 0.594402 22.9841 0.86663 23.5652 1.14358ZM17.5842 -1.29771H9.52704C10.322 -1.57704 11.1399 -1.8493 11.9799 -2.11416H15.1314C15.9714 -1.8493 16.7893 -1.57704 17.5842 -1.29771Z"
                stroke="#292929" stroke-width="0.404186" />
        </g>
    </g>
    <path
        d="M34.3244 9.41603C36.9403 9.41603 38.7278 11.7267 38.7278 14.1246V20.4464H36.8967V14.1246C36.8967 12.4897 35.6106 11.1818 34.0192 11.1818C32.8203 11.1818 31.7739 11.9229 31.338 12.9911V20.4464H29.5068V9.63402H31.338V10.7676C32.0791 9.89561 33.1255 9.41603 34.3244 9.41603Z"
        fill="#7A7A7A" />
    <path
        d="M47.1476 9.41603C50.1776 9.41603 52.6627 11.9447 52.6627 15.0402C52.6627 18.1357 50.1776 20.6426 47.1476 20.6426C45.7524 20.6426 44.6189 20.1194 43.8341 19.1384V20.4464H42.003V3.44308H43.8341V10.9202C44.6189 9.93921 45.7524 9.41603 47.1476 9.41603ZM47.0822 18.8986C49.1531 18.8986 50.8316 17.1547 50.8316 15.0402C50.8316 12.9039 49.1531 11.1818 47.0822 11.1818C45.7088 11.1818 44.4663 11.9665 43.8341 13.1655V16.9149C44.4663 18.1139 45.7088 18.8986 47.0822 18.8986Z"
        fill="#7A7A7A" />
    <path
        d="M60.1252 20.6426C57.0515 20.6426 54.5446 18.1139 54.5446 15.0184C54.5446 11.9447 57.0733 9.41603 60.1252 9.41603C63.177 9.41603 65.7057 11.9447 65.7057 15.0184C65.7057 18.1139 63.1988 20.6426 60.1252 20.6426ZM60.1252 18.8986C62.1961 18.8986 63.8746 17.1547 63.8746 15.0402C63.8746 12.9039 62.1961 11.1818 60.1252 11.1818C58.0543 11.1818 56.3757 12.9039 56.3757 15.0184C56.3757 17.1547 58.0543 18.8986 60.1252 18.8986Z"
        fill="#7A7A7A" />
    <path
        d="M76.4016 10.9202V9.63402H78.2327V20.4464H76.4016V19.1384C75.6386 20.1194 74.4833 20.6426 73.0881 20.6426C70.058 20.6426 67.573 18.1357 67.573 15.0402C67.573 11.9447 70.058 9.41603 73.0881 9.41603C74.4833 9.41603 75.6386 9.93921 76.4016 10.9202ZM73.1535 18.8986C74.5269 18.8986 75.7694 18.1139 76.4016 16.9367V13.1437C75.7694 11.9447 74.5269 11.1818 73.1535 11.1818C71.0826 11.1818 69.4041 12.9039 69.4041 15.0402C69.4041 17.1547 71.0826 18.8986 73.1535 18.8986Z"
        fill="#7A7A7A" />
    <path
        d="M87.2865 9.50323H87.3519L87.5699 11.3343H87.5045C85.5643 11.3343 84.082 12.2281 83.5152 13.6451V20.4464H81.6841V9.63402H83.5152V11.2036C84.3436 10.1572 85.7387 9.50323 87.2865 9.50323Z"
        fill="#7A7A7A" />
    <path
        d="M97.2001 10.9202V3.44308H99.0312V20.4464H97.2001V19.1384C96.4371 20.1194 95.2818 20.6426 93.8867 20.6426C90.8566 20.6426 88.3715 18.1357 88.3715 15.0402C88.3715 11.9447 90.8566 9.41603 93.8867 9.41603C95.2818 9.41603 96.4371 9.93921 97.2001 10.9202ZM93.952 18.8986C95.3254 18.8986 96.5679 18.1139 97.2001 16.9367V13.1437C96.5679 11.9447 95.3254 11.1818 93.952 11.1818C91.8811 11.1818 90.2026 12.9039 90.2026 15.0402C90.2026 17.1547 91.8811 18.8986 93.952 18.8986Z"
        fill="#7A7A7A" />
    <path
        d="M104.314 6.62575H102.483V3.44308H104.314V6.62575ZM104.314 9.63402V20.4464H102.483V9.63402H104.314Z"
        fill="#7A7A7A" />
    <path
        d="M112.58 9.41603C115.196 9.41603 116.983 11.7267 116.983 14.1246V20.4464H115.152V14.1246C115.152 12.4897 113.866 11.1818 112.275 11.1818C111.076 11.1818 110.029 11.9229 109.593 12.9911V20.4464H107.762V9.63402H109.593V10.7676C110.334 9.89561 111.381 9.41603 112.58 9.41603Z"
        fill="#7A7A7A" />
    <path
        d="M128.324 10.9202V9.63402H130.155V20.6208C130.155 23.5854 128.084 25.5473 124.901 25.5473C122.416 25.5473 120.607 24.3266 119.735 22.0813L121.392 21.3401C121.98 22.9315 123.201 23.8034 124.945 23.8034C127.038 23.8034 128.324 22.5609 128.324 20.6208V18.9204C127.539 19.8796 126.34 20.4246 124.901 20.4246C121.871 20.4246 119.495 17.9831 119.495 14.9966C119.495 11.9229 121.98 9.41603 124.989 9.41603C126.362 9.41603 127.539 9.96101 128.324 10.9202ZM125.01 18.6806C126.449 18.6806 127.692 17.8959 128.324 16.7187V13.1437C127.692 11.9665 126.449 11.2036 125.076 11.2036C123.027 11.2036 121.326 12.8821 121.326 14.9966C121.326 17.0239 122.918 18.6806 125.01 18.6806Z"
        fill="#7A7A7A" />
    <path d="M136.404 19.8931H134.68V16.9577H136.404V19.8931Z" fill="url(#paint2_linear_25_29433)" />
    <path
        d="M144.205 20.0779C141.352 20.0779 138.991 17.6967 138.991 14.7819C138.991 11.8875 141.352 9.50638 144.205 9.50638C146.32 9.50638 148.167 10.7996 148.968 12.6676L147.408 13.4271C146.894 12.0928 145.663 11.1691 144.205 11.1691C142.276 11.1691 140.716 12.7907 140.716 14.7819C140.716 16.773 142.276 18.4357 144.205 18.4357C145.663 18.4357 146.915 17.512 147.428 16.1367L148.968 16.8962C148.167 18.7847 146.299 20.0779 144.205 20.0779Z"
        fill="url(#paint3_linear_25_29433)" />
    <path d="M153.021 19.8931H151.296V3.88193H153.021V19.8931Z" fill="url(#paint4_linear_25_29433)" />
    <path
        d="M160.435 20.0779C157.951 20.0779 156.124 18.2715 156.124 15.7877V9.71165H157.848V15.8082C157.848 17.3272 158.936 18.4357 160.435 18.4357C161.954 18.4357 163.062 17.3272 163.062 15.8082V9.71165H164.787V15.7877C164.787 18.2715 162.939 20.0779 160.435 20.0779Z"
        fill="url(#paint5_linear_25_29433)" />
    <path
        d="M172.739 9.50638C175.592 9.50638 177.932 11.8875 177.932 14.8024C177.932 17.7173 175.592 20.0779 172.739 20.0779C171.425 20.0779 170.358 19.5852 169.619 18.6615V19.8931H167.895V3.88193H169.619V10.9228C170.358 9.99903 171.425 9.50638 172.739 9.50638ZM172.677 18.4357C174.628 18.4357 176.208 16.7935 176.208 14.8024C176.208 12.7907 174.628 11.1691 172.677 11.1691C171.384 11.1691 170.214 11.9081 169.619 13.0371V16.5677C170.214 17.6967 171.384 18.4357 172.677 18.4357Z"
        fill="url(#paint6_linear_25_29433)" />
    <path d="M136.472 19.8931H134.747V16.9577H136.472V19.8931Z" fill="url(#paint7_linear_25_29433)" />
    <path
        d="M144.273 20.0779C141.42 20.0779 139.059 17.6967 139.059 14.7819C139.059 11.8875 141.42 9.50638 144.273 9.50638C146.387 9.50638 148.235 10.7996 149.035 12.6676L147.475 13.4271C146.962 12.0928 145.73 11.1691 144.273 11.1691C142.343 11.1691 140.783 12.7907 140.783 14.7819C140.783 16.773 142.343 18.4357 144.273 18.4357C145.73 18.4357 146.982 17.512 147.496 16.1367L149.035 16.8962C148.235 18.7847 146.367 20.0779 144.273 20.0779Z"
        fill="url(#paint8_linear_25_29433)" />
    <path d="M153.088 19.8931H151.364V3.88193H153.088V19.8931Z" fill="url(#paint9_linear_25_29433)" />
    <path
        d="M160.502 20.0779C158.019 20.0779 156.192 18.2715 156.192 15.7877V9.71165H157.916V15.8082C157.916 17.3272 159.004 18.4357 160.502 18.4357C162.022 18.4357 163.13 17.3272 163.13 15.8082V9.71165H164.854V15.7877C164.854 18.2715 163.007 20.0779 160.502 20.0779Z"
        fill="url(#paint10_linear_25_29433)" />
    <path
        d="M172.807 9.50638C175.66 9.50638 178 11.8875 178 14.8024C178 17.7173 175.66 20.0779 172.807 20.0779C171.493 20.0779 170.425 19.5852 169.686 18.6615V19.8931H167.962V3.88193H169.686V10.9228C170.425 9.99903 171.493 9.50638 172.807 9.50638ZM172.745 18.4357C174.695 18.4357 176.276 16.7935 176.276 14.8024C176.276 12.7907 174.695 11.1691 172.745 11.1691C171.452 11.1691 170.282 11.9081 169.686 13.0371V16.5677C170.282 17.6967 171.452 18.4357 172.745 18.4357Z"
        fill="url(#paint11_linear_25_29433)" />
    <defs>
        <filter id="filter0_dii_25_29433" x="-0.118565" y="-0.652401" width="27.0294"
            height="27.0657" filterUnits="userSpaceOnUse" color-interpolation-filters="sRGB">
            <feFlood flood-opacity="0" result="BackgroundImageFix" />
            <feColorMatrix in="SourceAlpha" type="matrix"
                values="0 0 0 0 0 0 0 0 0 0 0 0 0 0 0 0 0 0 127 0" result="hardAlpha" />
            <feOffset dx="0.144331" dy="0.252579" />
            <feGaussianBlur stdDeviation="0.270621" />
            <feComposite in2="hardAlpha" operator="out" />
            <feColorMatrix type="matrix"
                values="0 0 0 0 0.0853125 0 0 0 0 0.0853125 0 0 0 0 0.0896875 0 0 0 1 0" />
            <feBlend mode="normal" in2="BackgroundImageFix" result="effect1_dropShadow_25_29433" />
            <feBlend mode="normal" in="SourceGraphic" in2="effect1_dropShadow_25_29433"
                result="shape" />
            <feColorMatrix in="SourceAlpha" type="matrix"
                values="0 0 0 0 0 0 0 0 0 0 0 0 0 0 0 0 0 0 127 0" result="hardAlpha" />
            <feOffset dx="0.902069" dy="0.865986" />
            <feGaussianBlur stdDeviation="0.757738" />
            <feComposite in2="hardAlpha" operator="arithmetic" k2="-1" k3="1" />
            <feColorMatrix type="matrix"
                values="0 0 0 0 0.55 0 0 0 0 0.55 0 0 0 0 0.55 0 0 0 0.39 0" />
            <feBlend mode="normal" in2="shape" result="effect2_innerShadow_25_29433" />
            <feColorMatrix in="SourceAlpha" type="matrix"
                values="0 0 0 0 0 0 0 0 0 0 0 0 0 0 0 0 0 0 127 0" result="hardAlpha" />
            <feOffset dx="-1.11857" dy="-1.19073" />
            <feGaussianBlur stdDeviation="0.902069" />
            <feComposite in2="hardAlpha" operator="arithmetic" k2="-1" k3="1" />
            <feColorMatrix type="matrix" values="0 0 0 0 0 0 0 0 0 0 0 0 0 0 0 0 0 0 0.25 0" />
            <feBlend mode="normal" in2="effect2_innerShadow_25_29433"
                result="effect3_innerShadow_25_29433" />
        </filter>
        <linearGradient id="paint0_linear_25_29433" x1="28.0359" y1="13.0547" x2="4.54604"
            y2="6.30724" gradientUnits="userSpaceOnUse">
            <stop offset="0.120161" stop-color="#767676" />
            <stop offset="0.449956" stop-color="#D3D3D3" />
            <stop offset="1" stop-color="white" />
        </linearGradient>
        <radialGradient id="paint1_radial_25_29433" cx="0" cy="0" r="1"
            gradientUnits="userSpaceOnUse"
            gradientTransform="translate(11.7626 8.85107) rotate(63.0392) scale(16.3549)">
            <stop stop-color="white" />
            <stop offset="1" stop-color="#262626" stop-opacity="0.58" />
        </radialGradient>
        <linearGradient id="paint2_linear_25_29433" x1="136.866" y1="17.3521" x2="184.855"
            y2="17.3348" gradientUnits="userSpaceOnUse">
            <stop stop-color="#9C74F1" />
            <stop offset="0.432292" stop-color="#F6B87E" />
            <stop offset="1" stop-color="#FBF4B9" />
        </linearGradient>
        <linearGradient id="paint3_linear_25_29433" x1="136.866" y1="17.3521" x2="184.855"
            y2="17.3348" gradientUnits="userSpaceOnUse">
            <stop stop-color="#9C74F1" />
            <stop offset="0.432292" stop-color="#F6B87E" />
            <stop offset="1" stop-color="#FBF4B9" />
        </linearGradient>
        <linearGradient id="paint4_linear_25_29433" x1="136.866" y1="17.3521" x2="184.855"
            y2="17.3348" gradientUnits="userSpaceOnUse">
            <stop stop-color="#9C74F1" />
            <stop offset="0.432292" stop-color="#F6B87E" />
            <stop offset="1" stop-color="#FBF4B9" />
        </linearGradient>
        <linearGradient id="paint5_linear_25_29433" x1="136.866" y1="17.3521" x2="184.855"
            y2="17.3348" gradientUnits="userSpaceOnUse">
            <stop stop-color="#9C74F1" />
            <stop offset="0.432292" stop-color="#F6B87E" />
            <stop offset="1" stop-color="#FBF4B9" />
        </linearGradient>
        <linearGradient id="paint6_linear_25_29433" x1="136.866" y1="17.3521" x2="184.855"
            y2="17.3348" gradientUnits="userSpaceOnUse">
            <stop stop-color="#9C74F1" />
            <stop offset="0.432292" stop-color="#F6B87E" />
            <stop offset="1" stop-color="#FBF4B9" />
        </linearGradient>
        <linearGradient id="paint7_linear_25_29433" x1="136.866" y1="17.3521" x2="184.855"
            y2="17.3348" gradientUnits="userSpaceOnUse">
            <stop stop-color="#9C74F1" />
            <stop offset="0.432292" stop-color="#F6B87E" />
            <stop offset="1" stop-color="#FBF4B9" />
        </linearGradient>
        <linearGradient id="paint8_linear_25_29433" x1="136.866" y1="17.3521" x2="184.855"
            y2="17.3348" gradientUnits="userSpaceOnUse">
            <stop stop-color="#9C74F1" />
            <stop offset="0.432292" stop-color="#F6B87E" />
            <stop offset="1" stop-color="#FBF4B9" />
        </linearGradient>
        <linearGradient id="paint9_linear_25_29433" x1="136.866" y1="17.3521" x2="184.855"
            y2="17.3348" gradientUnits="userSpaceOnUse">
            <stop stop-color="#9C74F1" />
            <stop offset="0.432292" stop-color="#F6B87E" />
            <stop offset="1" stop-color="#FBF4B9" />
        </linearGradient>
        <linearGradient id="paint10_linear_25_29433" x1="136.866" y1="17.3521" x2="184.855"
            y2="17.3348" gradientUnits="userSpaceOnUse">
            <stop stop-color="#9C74F1" />
            <stop offset="0.432292" stop-color="#F6B87E" />
            <stop offset="1" stop-color="#FBF4B9" />
        </linearGradient>
        <linearGradient id="paint11_linear_25_29433" x1="136.866" y1="17.3521" x2="184.855"
            y2="17.3348" gradientUnits="userSpaceOnUse">
            <stop stop-color="#9C74F1" />
            <stop offset="0.432292" stop-color="#F6B87E" />
            <stop offset="1" stop-color="#FBF4B9" />
        </linearGradient>
        <clipPath id="clip0_25_29433">
            <rect x="1" y="0.53833" width="25.009" height="25.009" rx="12.5045" fill="white" />
        </clipPath>
    </defs>
</svg>