<svg width="24" height="24" viewBox="0 0 24 24" fill="none" xmlns="http://www.w3.org/2000/svg">
    <g clip-path="url(#clip0_1420_89)">
        <path d="M12 0C5.38338 0 0 5.38292 0 12C0 18.6171 5.38338 24 12 24C18.6166 24 24 18.6171 24 12C24 5.38292 18.6166 0 12 0ZM17.7692 12.9231H12.9231V18C12.9231 18.5095 12.5095 18.9231 12 18.9231C11.4905 18.9231 11.0769 18.5095 11.0769 18V12.9231H6.23077C5.72123 12.9231 5.30769 12.5095 5.30769 12C5.30769 11.4905 5.72123 11.0769 6.23077 11.0769H11.0769V6.46154C11.0769 5.952 11.4905 5.53846 12 5.53846C12.5095 5.53846 12.9231 5.952 12.9231 6.46154V11.0769H17.7692C18.2788 11.0769 18.6923 11.4905 18.6923 12C18.6923 12.5095 18.2788 12.9231 17.7692 12.9231Z" fill="white" />
    </g>
    <defs>
        <clipPath id="clip0_1420_89">
            <rect width="24" height="24" fill="white" />
        </clipPath>
    </defs>
</svg>
