<svg width="36" height="36" viewBox="0 0 36 36" fill="none" xmlns="http://www.w3.org/2000/svg">
    <path d="M18 0.00100708C8.05991 0.00100708 0 8.05934 0 18.0002C0 27.9411 8.05912 35.9994 18 35.9994C27.9417 35.9994 36 27.9411 36 18.0002C36 8.05934 27.9417 0.00100708 18 0.00100708ZM18 5.38298C21.2891 5.38298 23.9544 8.04906 23.9544 11.3366C23.9544 14.6249 21.2891 17.2902 18 17.2902C14.7125 17.2902 12.0472 14.6249 12.0472 11.3366C12.0472 8.04906 14.7125 5.38298 18 5.38298ZM17.996 31.2935C14.7156 31.2935 11.7111 30.0988 9.39374 28.1214C8.82922 27.6399 8.50347 26.9338 8.50347 26.193C8.50347 22.8588 11.202 20.1903 14.5369 20.1903H21.4646C24.8004 20.1903 27.4886 22.8588 27.4886 26.193C27.4886 26.9346 27.1645 27.6391 26.5991 28.1206C24.2825 30.0988 21.2773 31.2935 17.996 31.2935Z" fill="#850885" />
</svg>
