<svg width="18" height="18" viewBox="0 0 18 18" fill="none" xmlns="http://www.w3.org/2000/svg">
    <path d="M2.8125 14.625C2.8125 15.2217 3.04955 15.794 3.47151 16.216C3.89347 16.6379 4.46576 16.875 5.0625 16.875H8.29688C8.33417 16.875 8.36994 16.8602 8.39631 16.8338C8.42268 16.8074 8.4375 16.7717 8.4375 16.7344V10.2656C8.4375 10.2283 8.42268 10.1926 8.39631 10.1662C8.36994 10.1398 8.33417 10.125 8.29688 10.125H3.09375C3.01916 10.125 2.94762 10.1546 2.89488 10.2074C2.84213 10.2601 2.8125 10.3317 2.8125 10.4062V14.625Z" fill="white" />
    <path d="M8.4375 8.85931V5.06243H9.5625V8.85931C9.5625 8.89661 9.57732 8.93237 9.60369 8.95875C9.63006 8.98512 9.66583 8.99994 9.70312 8.99994H14.625C14.8166 8.99993 15.0069 8.96723 15.1875 8.90326C15.5162 8.78654 15.8008 8.57101 16.0022 8.2862C16.2036 8.0014 16.312 7.66126 16.3125 7.31244V6.74994C16.3125 6.30238 16.1347 5.87316 15.8182 5.55669C15.5018 5.24022 15.0726 5.06243 14.625 5.06243H13.1998C13.1875 5.06224 13.1755 5.05885 13.165 5.0526C13.1545 5.04635 13.1458 5.03745 13.1397 5.0268C13.1337 5.01614 13.1305 5.00409 13.1306 4.99184C13.1306 4.9796 13.1339 4.96757 13.14 4.95697C13.4655 4.40743 13.5712 3.75517 13.4359 3.13096C13.3007 2.50675 12.9345 1.95675 12.4107 1.59123C11.8869 1.22572 11.2444 1.07172 10.6118 1.16011C9.97926 1.24849 9.40351 1.57274 9 2.06783C8.59649 1.57274 8.02074 1.24849 7.38819 1.16011C6.75564 1.07172 6.11306 1.22572 5.5893 1.59123C5.06553 1.95675 4.69931 2.50675 4.56405 3.13096C4.4288 3.75517 4.53451 4.40743 4.86 4.95697C4.86613 4.96757 4.86937 4.9796 4.86942 4.99184C4.86947 5.00409 4.86632 5.01614 4.86029 5.0268C4.85425 5.03745 4.84553 5.04635 4.835 5.0526C4.82446 5.05885 4.81248 5.06224 4.80023 5.06243H3.375C2.92745 5.06243 2.49822 5.24022 2.18176 5.55669C1.86529 5.87316 1.6875 6.30238 1.6875 6.74994V7.31244C1.688 7.66126 1.79638 8.0014 1.99779 8.2862C2.1992 8.57101 2.48378 8.78654 2.8125 8.90326V8.90326C2.99314 8.96723 3.18337 8.99993 3.375 8.99994H8.29688C8.33417 8.99994 8.36994 8.98512 8.39631 8.95875C8.42268 8.93237 8.4375 8.89661 8.4375 8.85931ZM9.5625 3.65618C9.5625 3.37805 9.64497 3.10617 9.7995 2.87491C9.95402 2.64366 10.1736 2.46341 10.4306 2.35698C10.6876 2.25054 10.9703 2.2227 11.2431 2.27696C11.5159 2.33122 11.7665 2.46515 11.9631 2.66182C12.1598 2.85848 12.2937 3.10905 12.348 3.38184C12.4022 3.65462 12.3744 3.93737 12.268 4.19433C12.1615 4.45129 11.9813 4.67092 11.75 4.82544C11.5188 4.97996 11.2469 5.06243 10.9688 5.06243H9.5625V3.65618ZM6.9307 2.25345C7.12336 2.23964 7.31679 2.26567 7.49895 2.3299C7.6811 2.39414 7.84807 2.49522 7.98944 2.62683C8.13081 2.75843 8.24356 2.91775 8.32065 3.09485C8.39773 3.27195 8.43751 3.46304 8.4375 3.65618V5.06243H7.03125C6.66763 5.0615 6.3185 4.91975 6.05714 4.66694C5.79579 4.41412 5.64252 4.06989 5.62951 3.7065C5.6165 3.34311 5.74476 2.9888 5.98737 2.71794C6.22998 2.44709 6.56808 2.28073 6.9307 2.2538V2.25345Z" fill="white" />
    <path d="M9.70312 16.875H12.9375C13.5342 16.875 14.1065 16.6379 14.5285 16.216C14.9504 15.794 15.1875 15.2217 15.1875 14.625V10.4062C15.1875 10.3317 15.1579 10.2601 15.1051 10.2074C15.0524 10.1546 14.9808 10.125 14.9062 10.125H9.70312C9.66583 10.125 9.63006 10.1398 9.60369 10.1662C9.57732 10.1926 9.5625 10.2283 9.5625 10.2656V16.7344C9.5625 16.7717 9.57732 16.8074 9.60369 16.8338C9.63006 16.8602 9.66583 16.875 9.70312 16.875Z" fill="white" />
</svg>
