<svg width="18" height="18" viewBox="0 0 18 18" fill="none" xmlns="http://www.w3.org/2000/svg">
    <g clip-path="url(#clip0_1427_127)">
        <path d="M13.3099 16.1762C13.3021 16.1336 13.3038 16.0541 13.3038 15.988V14.6848H4.69648V15.988C4.69648 16.0541 4.69827 16.1336 4.69043 16.1762H13.3099Z" fill="#A9A9A9" />
        <path d="M12.909 11.6648C10.4959 11.106 7.51276 11.138 5.12649 11.7485L4.81926 11.8269C4.78386 11.8359 4.74477 11.8402 4.70979 11.8402C4.70652 11.8402 4.69653 11.8399 4.69653 11.8398V13.8327H13.3039V11.7555L12.909 11.6648Z" fill="#A9A9A9" />
        <path d="M11.4364 1.26245H6.56388C4.66074 1.26245 3.11987 2.83105 3.11987 4.7342V7.16501C3.37553 7.29481 3.6309 7.46879 3.85151 7.68497C4.39288 8.21562 4.69649 8.95499 4.69649 9.71345V10.9766L4.91052 10.9227C7.42092 10.2806 10.5617 10.2467 13.0997 10.8345L13.3039 10.8807V9.71349C13.3039 8.95495 13.6075 8.21562 14.1488 7.68501C14.3695 7.46876 14.6248 7.29474 14.8805 7.1649V4.73424C14.8804 2.83102 13.3396 1.26245 11.4364 1.26245ZM7.42356 6.50358C7.42356 6.85658 7.13739 7.14276 6.78438 7.14276C6.43138 7.14276 6.14521 6.85658 6.14521 6.50358V5.8644C6.14521 5.5114 6.43138 5.22523 6.78438 5.22523C7.13739 5.22523 7.42356 5.5114 7.42356 5.8644V6.50358ZM11.8125 6.50358C11.8125 6.85658 11.5263 7.14276 11.1733 7.14276C10.8203 7.14276 10.5341 6.85658 10.5341 6.50358V5.8644C10.5341 5.5114 10.8203 5.22523 11.1733 5.22523C11.5263 5.22523 11.8125 5.5114 11.8125 5.8644V6.50358Z" fill="#A9A9A9" />
        <path d="M3.25125 8.29348C2.88956 7.939 2.42012 7.74512 1.92284 7.74512C1.91004 7.74512 1.89809 7.74526 1.88529 7.7455C0.845508 7.76628 0 8.62975 0 9.67024C0 10.7317 0.864457 11.5954 1.92596 11.5954C2.1613 11.5954 2.35294 11.7862 2.35294 12.0215V15.9879C2.35294 16.4011 2.68534 16.7374 3.09864 16.7374C3.51193 16.7374 3.84434 16.4011 3.84434 15.9879V9.71341C3.8443 9.17457 3.63572 8.67032 3.25125 8.29348Z" fill="#A9A9A9" />
        <path d="M16.1142 7.7455C16.1015 7.74526 16.0887 7.74512 16.0759 7.74512C15.5786 7.74512 15.1107 7.93897 14.7491 8.29348C14.3646 8.67036 14.156 9.17464 14.156 9.71341V15.9879C14.156 16.4011 14.4884 16.7373 14.9017 16.7373C15.315 16.7373 15.6474 16.4011 15.6474 15.9879V12.0214C15.6474 11.7861 15.8389 11.5953 16.0742 11.5953C17.1357 11.5953 18 10.7318 18 9.67027C18 8.62975 17.1541 7.76628 16.1142 7.7455Z" fill="#A9A9A9" />
    </g>
    <defs>
        <clipPath id="clip0_1427_127">
            <rect width="18" height="18" fill="white" />
        </clipPath>
    </defs>
</svg>
