<svg width="56" height="37" viewBox="0 0 56 37" fill="none" xmlns="http://www.w3.org/2000/svg">
<path d="M17.0632 0.547997H2.21112C0.989953 0.547997 0 1.54473 0 2.77427V11.288C0 12.5295 1.00942 13.504 2.24252 13.5117C4.9863 13.5288 7.21328 15.7813 7.21328 18.548C7.21328 21.3146 4.9863 23.5673 2.24252 23.5843C1.00942 23.5921 0 24.5666 0 25.808V34.3217C0 35.5512 0.989953 36.548 2.21112 36.548H17.0633C17.4702 36.548 17.8003 36.2159 17.8003 35.8059V1.29012C17.8002 0.880131 17.4701 0.547997 17.0632 0.547997Z" fill="white"/>
<path d="M53.841 13.5166C55.0412 13.4756 56 12.5002 56 11.291V2.77427C56 1.54484 55.0101 0.547997 53.7889 0.547997H22.9594C22.5524 0.547997 22.2223 0.880131 22.2223 1.29012V35.8059C22.2223 36.2158 22.5524 36.548 22.9594 36.548H53.7889C55.01 36.548 56 35.5513 56 34.3217V25.805C56 24.5958 55.0411 23.6204 53.841 23.5793C47.4518 23.3604 47.4366 13.7361 53.841 13.5166ZM43.3666 24.8611H29.5811C28.3601 24.8611 27.37 23.8643 27.37 22.6348C27.37 21.4053 28.36 20.4085 29.5811 20.4085H43.3664C44.5875 20.4085 45.5776 21.4053 45.5776 22.6348C45.5776 23.8643 44.5876 24.8611 43.3666 24.8611ZM43.3666 16.6873H29.5811C28.3601 16.6873 27.37 15.6906 27.37 14.4611C27.37 13.2315 28.36 12.2348 29.5811 12.2348H43.3664C44.5875 12.2348 45.5776 13.2315 45.5776 14.4611C45.5776 15.6906 44.5876 16.6873 43.3666 16.6873Z" fill="white"/>
</svg>
