<svg width="18" height="18" viewBox="0 0 18 18" fill="none" xmlns="http://www.w3.org/2000/svg">
    <g clip-path="url(#clip0_1433_169)">
        <path d="M16.3945 3.87992L13.0851 14.5944L12.1847 11.6867L15.0695 2.36095C14.9452 2.24737 14.8179 2.13704 14.6876 2.03052L11.9363 10.884L11.0356 7.97446L13.1986 1.04122C11.9438 0.376705 10.5136 0 8.99512 0C4.02723 0 0 4.02731 0 8.99512C0 10.9356 0.614427 12.7324 1.65922 14.2018L4.85533 3.64323L5.76106 6.56829L2.99737 15.6983C3.11921 15.8073 3.24406 15.913 3.37185 16.0157L5.99894 7.33685L6.90451 10.2618L4.86819 16.9894C6.10419 17.6289 7.50743 17.9903 8.99512 17.9903C13.9631 17.9903 17.9904 13.9631 17.9904 8.99512C17.9904 7.09477 17.4004 5.33213 16.3945 3.87992ZM9.26491 14.6971C8.8355 14.6971 8.51499 14.4077 8.41911 14.0943C8.32338 13.7809 5.12639 3.38185 5.12639 3.38185C5.12639 3.38185 5.98823 3.38201 6.33144 3.38201C6.67464 3.38201 6.97976 3.5852 7.07048 3.8719C7.1612 4.1586 10.3979 14.6971 10.3979 14.6971C10.3979 14.6971 9.69424 14.6971 9.26491 14.6971ZM11.5501 14.6947C11.1424 14.6947 10.7785 14.3833 10.6609 13.9866C10.5432 13.5898 7.45084 3.38193 7.45084 3.38193C7.45084 3.38193 8.22941 3.38193 8.61659 3.38193C9.00393 3.38193 9.30896 3.60584 9.40889 3.93286C9.50858 4.25996 12.6664 14.6951 12.6664 14.6951C12.6664 14.6951 11.958 14.6947 11.5501 14.6947Z" fill="white" />
    </g>
    <defs>
        <clipPath id="clip0_1433_169">
            <rect width="18" height="18" fill="white" />
        </clipPath>
    </defs>
</svg>
