<svg width="392" height="185" viewBox="0 0 392 185" fill="none" xmlns="http://www.w3.org/2000/svg">
    <g clip-path="url(#clip0_196_68)">
        <path d="M0 44C0 39.5817 3.58172 36 8 36H384C388.418 36 392 39.5817 392 44V177C392 181.418 388.418 185 384 185H8C3.58172 185 0 181.418 0 177V44Z" fill="#1D2126" />
        <path d="M104.186 93V76.2H109.706C111.018 76.2 112.098 76.416 112.946 76.848C113.794 77.28 114.418 77.864 114.818 78.6C115.234 79.336 115.442 80.168 115.442 81.096C115.442 82.008 115.242 82.832 114.842 83.568C114.442 84.304 113.818 84.896 112.97 85.344C112.122 85.776 111.034 85.992 109.706 85.992H106.202V93H104.186ZM106.202 84.288H109.658C111.002 84.288 111.954 84.008 112.514 83.448C113.09 82.872 113.378 82.088 113.378 81.096C113.378 80.088 113.09 79.304 112.514 78.744C111.954 78.168 111.002 77.88 109.658 77.88H106.202V84.288ZM117.965 93V75.72H119.981V93H117.965ZM128.637 93.288C127.501 93.288 126.493 93.032 125.613 92.52C124.733 91.992 124.037 91.264 123.525 90.336C123.029 89.408 122.781 88.312 122.781 87.048C122.781 85.8 123.029 84.712 123.525 83.784C124.021 82.84 124.709 82.112 125.589 81.6C126.485 81.072 127.517 80.808 128.685 80.808C129.837 80.808 130.829 81.072 131.661 81.6C132.509 82.112 133.157 82.792 133.605 83.64C134.053 84.488 134.277 85.4 134.277 86.376C134.277 86.552 134.269 86.728 134.253 86.904C134.253 87.08 134.253 87.28 134.253 87.504H124.773C124.821 88.416 125.029 89.176 125.397 89.784C125.781 90.376 126.253 90.824 126.813 91.128C127.389 91.432 127.997 91.584 128.637 91.584C129.469 91.584 130.165 91.392 130.725 91.008C131.285 90.624 131.693 90.104 131.949 89.448H133.941C133.621 90.552 133.005 91.472 132.093 92.208C131.197 92.928 130.045 93.288 128.637 93.288ZM128.637 82.512C127.677 82.512 126.821 82.808 126.069 83.4C125.333 83.976 124.909 84.824 124.797 85.944H132.285C132.237 84.872 131.869 84.032 131.181 83.424C130.493 82.816 129.645 82.512 128.637 82.512ZM140.909 93.288C139.917 93.288 139.093 93.12 138.437 92.784C137.781 92.448 137.293 92 136.973 91.44C136.653 90.88 136.493 90.272 136.493 89.616C136.493 88.4 136.957 87.464 137.885 86.808C138.813 86.152 140.077 85.824 141.677 85.824H144.893V85.68C144.893 84.64 144.621 83.856 144.077 83.328C143.533 82.784 142.805 82.512 141.893 82.512C141.109 82.512 140.429 82.712 139.853 83.112C139.293 83.496 138.941 84.064 138.797 84.816H136.733C136.813 83.952 137.101 83.224 137.597 82.632C138.109 82.04 138.741 81.592 139.493 81.288C140.245 80.968 141.045 80.808 141.893 80.808C143.557 80.808 144.805 81.256 145.637 82.152C146.485 83.032 146.909 84.208 146.909 85.68V93H145.109L144.989 90.864C144.653 91.536 144.157 92.112 143.501 92.592C142.861 93.056 141.997 93.288 140.909 93.288ZM141.221 91.584C141.989 91.584 142.645 91.384 143.189 90.984C143.749 90.584 144.173 90.064 144.461 89.424C144.749 88.784 144.893 88.112 144.893 87.408V87.384H141.845C140.661 87.384 139.821 87.592 139.325 88.008C138.845 88.408 138.605 88.912 138.605 89.52C138.605 90.144 138.829 90.648 139.277 91.032C139.741 91.4 140.389 91.584 141.221 91.584ZM154.493 93.288C153.069 93.288 151.885 92.928 150.941 92.208C149.997 91.488 149.445 90.512 149.285 89.28H151.349C151.477 89.904 151.805 90.448 152.333 90.912C152.877 91.36 153.605 91.584 154.517 91.584C155.365 91.584 155.989 91.408 156.389 91.056C156.789 90.688 156.989 90.256 156.989 89.76C156.989 89.04 156.725 88.56 156.197 88.32C155.685 88.08 154.957 87.864 154.013 87.672C153.373 87.544 152.733 87.36 152.093 87.12C151.453 86.88 150.917 86.544 150.485 86.112C150.053 85.664 149.837 85.08 149.837 84.36C149.837 83.32 150.221 82.472 150.989 81.816C151.773 81.144 152.829 80.808 154.157 80.808C155.421 80.808 156.453 81.128 157.253 81.768C158.069 82.392 158.541 83.288 158.669 84.456H156.677C156.597 83.848 156.333 83.376 155.885 83.04C155.453 82.688 154.869 82.512 154.133 82.512C153.413 82.512 152.853 82.664 152.453 82.968C152.069 83.272 151.877 83.672 151.877 84.168C151.877 84.648 152.125 85.024 152.621 85.296C153.133 85.568 153.821 85.8 154.685 85.992C155.421 86.152 156.117 86.352 156.773 86.592C157.445 86.816 157.989 87.16 158.405 87.624C158.837 88.072 159.053 88.728 159.053 89.592C159.069 90.664 158.661 91.552 157.829 92.256C157.013 92.944 155.901 93.288 154.493 93.288ZM167.285 93.288C166.149 93.288 165.141 93.032 164.261 92.52C163.381 91.992 162.685 91.264 162.173 90.336C161.677 89.408 161.429 88.312 161.429 87.048C161.429 85.8 161.677 84.712 162.173 83.784C162.669 82.84 163.357 82.112 164.237 81.6C165.133 81.072 166.165 80.808 167.333 80.808C168.485 80.808 169.477 81.072 170.309 81.6C171.157 82.112 171.805 82.792 172.253 83.64C172.701 84.488 172.925 85.4 172.925 86.376C172.925 86.552 172.917 86.728 172.901 86.904C172.901 87.08 172.901 87.28 172.901 87.504H163.421C163.469 88.416 163.677 89.176 164.045 89.784C164.429 90.376 164.901 90.824 165.461 91.128C166.037 91.432 166.645 91.584 167.285 91.584C168.117 91.584 168.813 91.392 169.373 91.008C169.933 90.624 170.341 90.104 170.597 89.448H172.589C172.269 90.552 171.653 91.472 170.741 92.208C169.845 92.928 168.693 93.288 167.285 93.288ZM167.285 82.512C166.325 82.512 165.469 82.808 164.717 83.4C163.981 83.976 163.557 84.824 163.445 85.944H170.933C170.885 84.872 170.517 84.032 169.829 83.424C169.141 82.816 168.293 82.512 167.285 82.512ZM187.373 93.288C186.253 93.288 185.245 93.032 184.349 92.52C183.453 92.008 182.741 91.288 182.213 90.36C181.701 89.416 181.445 88.312 181.445 87.048C181.445 85.784 181.709 84.688 182.237 83.76C182.765 82.816 183.477 82.088 184.373 81.576C185.285 81.064 186.301 80.808 187.421 80.808C188.541 80.808 189.549 81.064 190.445 81.576C191.341 82.088 192.045 82.816 192.557 83.76C193.085 84.688 193.349 85.784 193.349 87.048C193.349 88.312 193.085 89.416 192.557 90.36C192.029 91.288 191.309 92.008 190.397 92.52C189.501 93.032 188.493 93.288 187.373 93.288ZM187.373 91.56C188.061 91.56 188.701 91.392 189.293 91.056C189.885 90.72 190.365 90.216 190.733 89.544C191.101 88.872 191.285 88.04 191.285 87.048C191.285 86.056 191.101 85.224 190.733 84.552C190.381 83.88 189.909 83.376 189.317 83.04C188.725 82.704 188.093 82.536 187.421 82.536C186.733 82.536 186.093 82.704 185.501 83.04C184.909 83.376 184.429 83.88 184.061 84.552C183.693 85.224 183.509 86.056 183.509 87.048C183.509 88.04 183.693 88.872 184.061 89.544C184.429 90.216 184.901 90.72 185.477 91.056C186.069 91.392 186.701 91.56 187.373 91.56ZM196.152 98.28V81.096H197.976L198.168 83.064C198.552 82.488 199.096 81.968 199.8 81.504C200.52 81.04 201.432 80.808 202.536 80.808C203.72 80.808 204.752 81.08 205.632 81.624C206.512 82.168 207.192 82.912 207.672 83.856C208.168 84.8 208.416 85.872 208.416 87.072C208.416 88.272 208.168 89.344 207.672 90.288C207.192 91.216 206.504 91.952 205.608 92.496C204.728 93.024 203.696 93.288 202.512 93.288C201.536 93.288 200.664 93.088 199.896 92.688C199.144 92.288 198.568 91.728 198.168 91.008V98.28H196.152ZM202.296 91.536C203.096 91.536 203.8 91.352 204.408 90.984C205.016 90.6 205.496 90.072 205.848 89.4C206.2 88.728 206.376 87.944 206.376 87.048C206.376 86.152 206.2 85.368 205.848 84.696C205.496 84.024 205.016 83.504 204.408 83.136C203.8 82.752 203.096 82.56 202.296 82.56C201.496 82.56 200.792 82.752 200.184 83.136C199.576 83.504 199.096 84.024 198.744 84.696C198.392 85.368 198.216 86.152 198.216 87.048C198.216 87.944 198.392 88.728 198.744 89.4C199.096 90.072 199.576 90.6 200.184 90.984C200.792 91.352 201.496 91.536 202.296 91.536ZM216.574 93.288C215.438 93.288 214.43 93.032 213.55 92.52C212.67 91.992 211.974 91.264 211.462 90.336C210.966 89.408 210.718 88.312 210.718 87.048C210.718 85.8 210.966 84.712 211.462 83.784C211.958 82.84 212.646 82.112 213.526 81.6C214.422 81.072 215.454 80.808 216.622 80.808C217.774 80.808 218.766 81.072 219.598 81.6C220.446 82.112 221.094 82.792 221.542 83.64C221.99 84.488 222.214 85.4 222.214 86.376C222.214 86.552 222.206 86.728 222.19 86.904C222.19 87.08 222.19 87.28 222.19 87.504H212.71C212.758 88.416 212.966 89.176 213.334 89.784C213.718 90.376 214.19 90.824 214.75 91.128C215.326 91.432 215.934 91.584 216.574 91.584C217.406 91.584 218.102 91.392 218.662 91.008C219.222 90.624 219.63 90.104 219.886 89.448H221.878C221.558 90.552 220.942 91.472 220.03 92.208C219.134 92.928 217.982 93.288 216.574 93.288ZM216.574 82.512C215.614 82.512 214.758 82.808 214.006 83.4C213.27 83.976 212.846 84.824 212.734 85.944H220.222C220.174 84.872 219.806 84.032 219.118 83.424C218.43 82.816 217.582 82.512 216.574 82.512ZM224.886 93V81.096H226.71L226.83 83.232C227.214 82.48 227.766 81.888 228.486 81.456C229.206 81.024 230.022 80.808 230.934 80.808C232.342 80.808 233.462 81.24 234.294 82.104C235.142 82.952 235.566 84.264 235.566 86.04V93H233.55V86.256C233.55 83.776 232.526 82.536 230.478 82.536C229.454 82.536 228.598 82.912 227.91 83.664C227.238 84.4 226.902 85.456 226.902 86.832V93H224.886ZM250.396 93.288C249.276 93.288 248.268 93.032 247.372 92.52C246.476 92.008 245.764 91.288 245.236 90.36C244.724 89.416 244.468 88.312 244.468 87.048C244.468 85.784 244.732 84.688 245.26 83.76C245.788 82.816 246.5 82.088 247.396 81.576C248.308 81.064 249.324 80.808 250.444 80.808C251.564 80.808 252.572 81.064 253.468 81.576C254.364 82.088 255.068 82.816 255.58 83.76C256.108 84.688 256.372 85.784 256.372 87.048C256.372 88.312 256.108 89.416 255.58 90.36C255.052 91.288 254.332 92.008 253.42 92.52C252.524 93.032 251.516 93.288 250.396 93.288ZM250.396 91.56C251.084 91.56 251.724 91.392 252.316 91.056C252.908 90.72 253.388 90.216 253.756 89.544C254.124 88.872 254.308 88.04 254.308 87.048C254.308 86.056 254.124 85.224 253.756 84.552C253.404 83.88 252.932 83.376 252.34 83.04C251.748 82.704 251.116 82.536 250.444 82.536C249.756 82.536 249.116 82.704 248.524 83.04C247.932 83.376 247.452 83.88 247.084 84.552C246.716 85.224 246.532 86.056 246.532 87.048C246.532 88.04 246.716 88.872 247.084 89.544C247.452 90.216 247.924 90.72 248.5 91.056C249.092 91.392 249.724 91.56 250.396 91.56ZM259.176 93V81.096H261L261.12 83.232C261.504 82.48 262.056 81.888 262.776 81.456C263.496 81.024 264.312 80.808 265.224 80.808C266.632 80.808 267.752 81.24 268.584 82.104C269.432 82.952 269.856 84.264 269.856 86.04V93H267.84V86.256C267.84 83.776 266.816 82.536 264.768 82.536C263.744 82.536 262.888 82.912 262.2 83.664C261.528 84.4 261.192 85.456 261.192 86.832V93H259.176ZM283.221 93.288C282.229 93.288 281.405 93.12 280.749 92.784C280.093 92.448 279.605 92 279.285 91.44C278.965 90.88 278.805 90.272 278.805 89.616C278.805 88.4 279.269 87.464 280.197 86.808C281.125 86.152 282.389 85.824 283.989 85.824H287.205V85.68C287.205 84.64 286.933 83.856 286.389 83.328C285.845 82.784 285.117 82.512 284.205 82.512C283.421 82.512 282.741 82.712 282.165 83.112C281.605 83.496 281.253 84.064 281.109 84.816H279.045C279.125 83.952 279.413 83.224 279.909 82.632C280.421 82.04 281.053 81.592 281.805 81.288C282.557 80.968 283.357 80.808 284.205 80.808C285.869 80.808 287.117 81.256 287.949 82.152C288.797 83.032 289.221 84.208 289.221 85.68V93H287.421L287.301 90.864C286.965 91.536 286.469 92.112 285.813 92.592C285.173 93.056 284.309 93.288 283.221 93.288ZM283.533 91.584C284.301 91.584 284.957 91.384 285.501 90.984C286.061 90.584 286.485 90.064 286.773 89.424C287.061 88.784 287.205 88.112 287.205 87.408V87.384H284.157C282.973 87.384 282.133 87.592 281.637 88.008C281.157 88.408 280.917 88.912 280.917 89.52C280.917 90.144 281.141 90.648 281.589 91.032C282.053 91.4 282.701 91.584 283.533 91.584ZM123.133 124V112.096H124.957L125.101 113.824C125.485 113.184 125.997 112.688 126.637 112.336C127.277 111.984 127.997 111.808 128.797 111.808C129.741 111.808 130.549 112 131.221 112.384C131.909 112.768 132.437 113.352 132.805 114.136C133.221 113.416 133.789 112.848 134.509 112.432C135.245 112.016 136.037 111.808 136.885 111.808C138.309 111.808 139.445 112.24 140.293 113.104C141.141 113.952 141.565 115.264 141.565 117.04V124H139.573V117.256C139.573 116.024 139.325 115.096 138.829 114.472C138.333 113.848 137.621 113.536 136.693 113.536C135.733 113.536 134.933 113.912 134.293 114.664C133.669 115.4 133.357 116.456 133.357 117.832V124H131.341V117.256C131.341 116.024 131.093 115.096 130.597 114.472C130.101 113.848 129.389 113.536 128.461 113.536C127.517 113.536 126.725 113.912 126.085 114.664C125.461 115.4 125.149 116.456 125.149 117.832V124H123.133ZM150.025 124.288C148.905 124.288 147.897 124.032 147.001 123.52C146.105 123.008 145.393 122.288 144.865 121.36C144.353 120.416 144.097 119.312 144.097 118.048C144.097 116.784 144.361 115.688 144.889 114.76C145.417 113.816 146.129 113.088 147.025 112.576C147.937 112.064 148.953 111.808 150.073 111.808C151.193 111.808 152.201 112.064 153.097 112.576C153.993 113.088 154.697 113.816 155.209 114.76C155.737 115.688 156.001 116.784 156.001 118.048C156.001 119.312 155.737 120.416 155.209 121.36C154.681 122.288 153.961 123.008 153.049 123.52C152.153 124.032 151.145 124.288 150.025 124.288ZM150.025 122.56C150.713 122.56 151.353 122.392 151.945 122.056C152.537 121.72 153.017 121.216 153.385 120.544C153.753 119.872 153.937 119.04 153.937 118.048C153.937 117.056 153.753 116.224 153.385 115.552C153.033 114.88 152.561 114.376 151.969 114.04C151.377 113.704 150.745 113.536 150.073 113.536C149.385 113.536 148.745 113.704 148.153 114.04C147.561 114.376 147.081 114.88 146.713 115.552C146.345 116.224 146.161 117.056 146.161 118.048C146.161 119.04 146.345 119.872 146.713 120.544C147.081 121.216 147.553 121.72 148.129 122.056C148.721 122.392 149.353 122.56 150.025 122.56ZM165.164 124.288C164.188 124.288 163.316 124.088 162.548 123.688C161.796 123.288 161.22 122.728 160.82 122.008L160.628 124H158.804V106.72H160.82V114.064C161.204 113.488 161.748 112.968 162.452 112.504C163.172 112.04 164.084 111.808 165.188 111.808C166.372 111.808 167.404 112.08 168.284 112.624C169.164 113.168 169.844 113.912 170.324 114.856C170.82 115.8 171.068 116.872 171.068 118.072C171.068 119.272 170.82 120.344 170.324 121.288C169.844 122.216 169.156 122.952 168.26 123.496C167.38 124.024 166.348 124.288 165.164 124.288ZM164.948 122.536C165.748 122.536 166.452 122.352 167.06 121.984C167.668 121.6 168.148 121.072 168.5 120.4C168.852 119.728 169.028 118.944 169.028 118.048C169.028 117.152 168.852 116.368 168.5 115.696C168.148 115.024 167.668 114.504 167.06 114.136C166.452 113.752 165.748 113.56 164.948 113.56C164.148 113.56 163.444 113.752 162.836 114.136C162.228 114.504 161.748 115.024 161.396 115.696C161.044 116.368 160.868 117.152 160.868 118.048C160.868 118.944 161.044 119.728 161.396 120.4C161.748 121.072 162.228 121.6 162.836 121.984C163.444 122.352 164.148 122.536 164.948 122.536ZM175.099 109.456C174.699 109.456 174.363 109.328 174.091 109.072C173.835 108.8 173.707 108.464 173.707 108.064C173.707 107.68 173.835 107.36 174.091 107.104C174.363 106.848 174.699 106.72 175.099 106.72C175.483 106.72 175.811 106.848 176.083 107.104C176.355 107.36 176.491 107.68 176.491 108.064C176.491 108.464 176.355 108.8 176.083 109.072C175.811 109.328 175.483 109.456 175.099 109.456ZM174.091 124V112.096H176.107V124H174.091ZM179.617 124V106.72H181.633V124H179.617ZM190.289 124.288C189.153 124.288 188.145 124.032 187.265 123.52C186.385 122.992 185.689 122.264 185.177 121.336C184.681 120.408 184.433 119.312 184.433 118.048C184.433 116.8 184.681 115.712 185.177 114.784C185.673 113.84 186.361 113.112 187.241 112.6C188.137 112.072 189.169 111.808 190.337 111.808C191.489 111.808 192.481 112.072 193.313 112.6C194.161 113.112 194.809 113.792 195.257 114.64C195.705 115.488 195.929 116.4 195.929 117.376C195.929 117.552 195.921 117.728 195.905 117.904C195.905 118.08 195.905 118.28 195.905 118.504H186.425C186.473 119.416 186.681 120.176 187.049 120.784C187.433 121.376 187.905 121.824 188.465 122.128C189.041 122.432 189.649 122.584 190.289 122.584C191.121 122.584 191.817 122.392 192.377 122.008C192.937 121.624 193.345 121.104 193.601 120.448H195.593C195.273 121.552 194.657 122.472 193.745 123.208C192.849 123.928 191.697 124.288 190.289 124.288ZM190.289 113.512C189.329 113.512 188.473 113.808 187.721 114.4C186.985 114.976 186.561 115.824 186.449 116.944H193.937C193.889 115.872 193.521 115.032 192.833 114.424C192.145 113.816 191.297 113.512 190.289 113.512ZM197.617 126.28L203.641 105.664H205.633L199.609 126.28H197.617ZM212.68 124C211.592 124 210.736 123.736 210.112 123.208C209.488 122.68 209.176 121.728 209.176 120.352V113.8H207.112V112.096H209.176L209.44 109.24H211.192V112.096H214.696V113.8H211.192V120.352C211.192 121.104 211.344 121.616 211.648 121.888C211.952 122.144 212.488 122.272 213.256 122.272H214.504V124H212.68ZM221.218 124.288C220.226 124.288 219.402 124.12 218.746 123.784C218.09 123.448 217.602 123 217.282 122.44C216.962 121.88 216.802 121.272 216.802 120.616C216.802 119.4 217.266 118.464 218.194 117.808C219.122 117.152 220.386 116.824 221.986 116.824H225.202V116.68C225.202 115.64 224.93 114.856 224.386 114.328C223.842 113.784 223.114 113.512 222.202 113.512C221.418 113.512 220.738 113.712 220.162 114.112C219.602 114.496 219.25 115.064 219.106 115.816H217.042C217.122 114.952 217.41 114.224 217.906 113.632C218.418 113.04 219.05 112.592 219.802 112.288C220.554 111.968 221.354 111.808 222.202 111.808C223.866 111.808 225.114 112.256 225.946 113.152C226.794 114.032 227.218 115.208 227.218 116.68V124H225.418L225.298 121.864C224.962 122.536 224.466 123.112 223.81 123.592C223.17 124.056 222.306 124.288 221.218 124.288ZM221.53 122.584C222.298 122.584 222.954 122.384 223.498 121.984C224.058 121.584 224.482 121.064 224.77 120.424C225.058 119.784 225.202 119.112 225.202 118.408V118.384H222.154C220.97 118.384 220.13 118.592 219.634 119.008C219.154 119.408 218.914 119.912 218.914 120.52C218.914 121.144 219.138 121.648 219.586 122.032C220.05 122.4 220.698 122.584 221.53 122.584ZM236.602 124.288C235.626 124.288 234.754 124.088 233.986 123.688C233.234 123.288 232.658 122.728 232.258 122.008L232.066 124H230.242V106.72H232.258V114.064C232.642 113.488 233.186 112.968 233.89 112.504C234.61 112.04 235.522 111.808 236.626 111.808C237.81 111.808 238.842 112.08 239.722 112.624C240.602 113.168 241.282 113.912 241.762 114.856C242.258 115.8 242.506 116.872 242.506 118.072C242.506 119.272 242.258 120.344 241.762 121.288C241.282 122.216 240.594 122.952 239.698 123.496C238.818 124.024 237.786 124.288 236.602 124.288ZM236.386 122.536C237.186 122.536 237.89 122.352 238.498 121.984C239.106 121.6 239.586 121.072 239.938 120.4C240.29 119.728 240.466 118.944 240.466 118.048C240.466 117.152 240.29 116.368 239.938 115.696C239.586 115.024 239.106 114.504 238.498 114.136C237.89 113.752 237.186 113.56 236.386 113.56C235.586 113.56 234.882 113.752 234.274 114.136C233.666 114.504 233.186 115.024 232.834 115.696C232.482 116.368 232.306 117.152 232.306 118.048C232.306 118.944 232.482 119.728 232.834 120.4C233.186 121.072 233.666 121.6 234.274 121.984C234.882 122.352 235.586 122.536 236.386 122.536ZM245.312 124V106.72H247.328V124H245.312ZM255.985 124.288C254.849 124.288 253.841 124.032 252.961 123.52C252.081 122.992 251.385 122.264 250.873 121.336C250.377 120.408 250.129 119.312 250.129 118.048C250.129 116.8 250.377 115.712 250.873 114.784C251.369 113.84 252.057 113.112 252.937 112.6C253.833 112.072 254.865 111.808 256.033 111.808C257.185 111.808 258.177 112.072 259.009 112.6C259.857 113.112 260.505 113.792 260.953 114.64C261.401 115.488 261.625 116.4 261.625 117.376C261.625 117.552 261.617 117.728 261.601 117.904C261.601 118.08 261.601 118.28 261.601 118.504H252.121C252.169 119.416 252.377 120.176 252.745 120.784C253.129 121.376 253.601 121.824 254.161 122.128C254.737 122.432 255.345 122.584 255.985 122.584C256.817 122.584 257.513 122.392 258.073 122.008C258.633 121.624 259.041 121.104 259.297 120.448H261.289C260.969 121.552 260.353 122.472 259.441 123.208C258.545 123.928 257.393 124.288 255.985 124.288ZM255.985 113.512C255.025 113.512 254.169 113.808 253.417 114.4C252.681 114.976 252.257 115.824 252.145 116.944H259.633C259.585 115.872 259.217 115.032 258.529 114.424C257.841 113.816 256.993 113.512 255.985 113.512ZM268.602 124C267.514 124 266.658 123.736 266.034 123.208C265.41 122.68 265.098 121.728 265.098 120.352V113.8H263.034V112.096H265.098L265.362 109.24H267.114V112.096H270.618V113.8H267.114V120.352C267.114 121.104 267.266 121.616 267.57 121.888C267.874 122.144 268.41 122.272 269.178 122.272H270.426V124H268.602Z" fill="#DDDDDD" />
        <g clip-path="url(#clip1_196_68)">
            <path d="M44 125H66L55 106L44 125ZM56 122H54V120H56V122ZM56 118H54V114H56V118Z" fill="white" />
        </g>
        <g clip-path="url(#clip2_196_68)">
            <path d="M327 124H349L338 105L327 124ZM339 121H337V119H339V121ZM339 117H337V113H339V117Z" fill="white" />
        </g>
        <path d="M0 8C0 3.58172 3.58172 0 8 0H384C388.418 0 392 3.58172 392 8V46H0V8Z" fill="#181B1F" />
        <g clip-path="url(#clip3_196_68)">
            <path d="M25 32C29.4183 32 33 28.4183 33 24C33 19.5817 29.4183 16 25 16C20.5817 16 17 19.5817 17 24C17 28.4183 20.5817 32 25 32Z" fill="#FF0000" />
        </g>
        <g clip-path="url(#clip4_196_68)">
            <path d="M73 32C77.4183 32 81 28.4183 81 24C81 19.5817 77.4183 16 73 16C68.5817 16 65 19.5817 65 24C65 28.4183 68.5817 32 73 32Z" fill="#41E22E" />
        </g>
        <g clip-path="url(#clip5_196_68)">
            <path d="M49 32C53.4183 32 57 28.4183 57 24C57 19.5817 53.4183 16 49 16C44.5817 16 41 19.5817 41 24C41 28.4183 44.5817 32 49 32Z" fill="#FFF502" />
        </g>
        <g clip-path="url(#clip6_196_68)">
            <path d="M359 19H361V21H359V19ZM359 23H361V29H359V23Z" fill="#4A90E2" />
            <path d="M360 14C354.48 14 350 18.48 350 24C350 29.52 354.48 34 360 34C365.52 34 370 29.52 370 24C370 18.48 365.52 14 360 14ZM360 32C355.59 32 352 28.41 352 24C352 19.59 355.59 16 360 16C364.41 16 368 19.59 368 24C368 28.41 364.41 32 360 32Z" fill="#4A90E2" />
        </g>
    </g>
    <defs>
        <clipPath id="clip0_196_68">
            <rect width="392" height="185" fill="white" />
        </clipPath>
        <clipPath id="clip1_196_68">
            <path d="M43 104H67V128H43V104Z" fill="white" />
        </clipPath>
        <clipPath id="clip2_196_68">
            <path d="M326 103H350V127H326V103Z" fill="white" />
        </clipPath>
        <clipPath id="clip3_196_68">
            <rect width="24" height="24" fill="white" transform="translate(13 12)" />
        </clipPath>
        <clipPath id="clip4_196_68">
            <rect width="24" height="24" fill="white" transform="translate(61 12)" />
        </clipPath>
        <clipPath id="clip5_196_68">
            <rect width="24" height="24" fill="white" transform="translate(37 12)" />
        </clipPath>
        <clipPath id="clip6_196_68">
            <rect width="24" height="24" fill="white" transform="translate(348 12)" />
        </clipPath>
    </defs>
</svg>
